# xmcd CD database file
#
# Track frame offsets:
#	150
#	9746
#	25475
#	36452
#	58889
#	74297
#	87323
#	103088
#	116431
#	137847
#	152589
#	155607
#	179065
#	196027
#	212002
#	234644
#
# Disc length: 3347 seconds
#
# Revision: 1
# Processed by: cddbd v1.5.1PL0 Copyright (c) Steve Scherf et al.
# Submitted via: CDex 1.51
#
DISCID=e60d1110
DTITLE=Eddie Shaw - Fannie Mae Jones
DYEAR=2004
DGENRE=Blues
TTITLE0=It's Your Thang
TTITLE1=Ugly Woman
TTITLE2=Tell Somebody
TTITLE3=Fannie Mae Jones
TTITLE4=Dunkin Donut Woman
TTITLE5=Blues Is Good News
TTITLE6=Greddy Man
TTITLE7=Blues Is For The Westside
TTITLE8=Home Alone
TTITLE9=Motel 6
TTITLE10=Long Ways From Home
TTITLE11=Good Timing Twins
TTITLE12=Unknown Track 1
TTITLE13=Unknown Track 2
TTITLE14=Unknown Track 3
TTITLE15=Unknown Track 4
EXTD=YEAR: 2004
EXTT0=
EXTT1=
EXTT2=
EXTT3=
EXTT4=
EXTT5=
EXTT6=
EXTT7=
EXTT8=
EXTT9=
EXTT10=
EXTT11=
EXTT12=
EXTT13=
EXTT14=
EXTT15=
PLAYORDER=
